<svg width="109" height="151" viewBox="0 0 109 151" fill="none" xmlns="http://www.w3.org/2000/svg">
<rect width="109" height="151" fill="#D9D9D9"/>
<g filter="url(#filter0_d_3799_194)">
<rect x="5" y="6" width="99" height="139" fill="white"/>
</g>
<rect x="15" y="18" width="78" height="30" fill="#B2B4B6"/>
<rect x="15" y="66" width="9" height="10" fill="#B2B4B6"/>
<rect x="15" y="84" width="9" height="10" fill="#B2B4B6"/>
<rect x="15" y="102" width="9" height="10" fill="#B2B4B6"/>
<rect x="15" y="120" width="9" height="10" fill="#B2B4B6"/>
<rect x="32" y="66" width="58" height="10" fill="#B2B4B6"/>
<rect x="32" y="84" width="40" height="10" fill="#B2B4B6"/>
<rect x="32" y="102" width="58" height="10" fill="#B2B4B6"/>
<rect x="32" y="120" width="50" height="10" fill="#B2B4B6"/>
<path d="M35.4648 25.9961H41.0605C41.7832 25.9961 42.4342 26.1165 43.0137 26.3574C43.5996 26.5918 44.0944 26.9173 44.498 27.334C44.9017 27.7441 45.2109 28.2324 45.4258 28.7988C45.6471 29.3652 45.7578 29.9805 45.7578 30.6445C45.7578 31.3086 45.6374 31.9238 45.3965 32.4902C45.1621 33.0566 44.8268 33.5482 44.3906 33.9648C43.9609 34.375 43.4434 34.6973 42.8379 34.9316C42.2324 35.166 41.5651 35.2832 40.8359 35.2832H38.2969V40H35.4648V25.9961ZM42.8379 30.5957C42.8379 30.2637 42.7793 29.9707 42.6621 29.7168C42.5449 29.4564 42.3757 29.235 42.1543 29.0527C41.9329 28.8704 41.666 28.7337 41.3535 28.6426C41.041 28.5449 40.6895 28.4961 40.2988 28.4961H38.2969V32.7832H40.2988C40.6895 32.7832 41.041 32.7376 41.3535 32.6465C41.666 32.5488 41.9329 32.4089 42.1543 32.2266C42.3757 32.0443 42.5449 31.8262 42.6621 31.5723C42.7793 31.3118 42.8379 31.0156 42.8379 30.6836V30.5957ZM60.7078 32.998C60.7078 34.0462 60.5646 35.0033 60.2781 35.8691C59.9982 36.7285 59.575 37.4642 59.0086 38.0762C58.4487 38.6882 57.7456 39.1634 56.8992 39.502C56.0529 39.834 55.0633 40 53.9305 40H48.7742V25.9961H53.9305C55.0633 25.9961 56.0529 26.1654 56.8992 26.5039C57.7456 26.8359 58.4487 27.3079 59.0086 27.9199C59.575 28.5319 59.9982 29.2708 60.2781 30.1367C60.5646 30.9961 60.7078 31.9499 60.7078 32.998ZM57.7684 32.7246C57.7684 32.1322 57.6935 31.582 57.5437 31.0742C57.4005 30.5599 57.1661 30.1139 56.8406 29.7363C56.5216 29.3587 56.1049 29.0625 55.5906 28.8477C55.0763 28.6263 54.4546 28.5156 53.7254 28.5156H51.6062V37.4805H53.7254C54.448 37.4805 55.0665 37.373 55.5809 37.1582C56.0952 36.9368 56.5118 36.6374 56.8309 36.2598C57.1564 35.8757 57.394 35.4264 57.5437 34.9121C57.6935 34.3978 57.7684 33.8477 57.7684 33.2617V32.7246ZM64.193 25.9961H73.6266V28.5645H67.025V31.543H73.109V34.1016H67.025V40H64.193V25.9961Z" fill="white"/>
<defs>
<filter id="filter0_d_3799_194" x="3" y="6" width="103" height="143" filterUnits="userSpaceOnUse" color-interpolation-filters="sRGB">
<feFlood flood-opacity="0" result="BackgroundImageFix"/>
<feColorMatrix in="SourceAlpha" type="matrix" values="0 0 0 0 0 0 0 0 0 0 0 0 0 0 0 0 0 0 127 0" result="hardAlpha"/>
<feOffset dy="2"/>
<feGaussianBlur stdDeviation="1"/>
<feComposite in2="hardAlpha" operator="out"/>
<feColorMatrix type="matrix" values="0 0 0 0 0 0 0 0 0 0 0 0 0 0 0 0 0 0 0.25 0"/>
<feBlend mode="normal" in2="BackgroundImageFix" result="effect1_dropShadow_3799_194"/>
<feBlend mode="normal" in="SourceGraphic" in2="effect1_dropShadow_3799_194" result="shape"/>
</filter>
</defs>
</svg>
