<svg width="109" height="151" viewBox="0 0 109 151" fill="none" xmlns="http://www.w3.org/2000/svg">
<rect width="109" height="151" fill="#D9D9D9"/>
<g filter="url(#filter0_d_3799_193)">
<rect x="5" y="6" width="99" height="139" fill="white"/>
</g>
<rect x="15" y="18" width="78" height="30" fill="#B2B4B6"/>
<rect x="15" y="66" width="9" height="10" fill="#B2B4B6"/>
<rect x="15" y="84" width="9" height="10" fill="#B2B4B6"/>
<rect x="15" y="102" width="9" height="10" fill="#B2B4B6"/>
<rect x="15" y="120" width="9" height="10" fill="#B2B4B6"/>
<rect x="32" y="66" width="58" height="10" fill="#B2B4B6"/>
<rect x="32" y="84" width="40" height="10" fill="#B2B4B6"/>
<rect x="32" y="102" width="58" height="10" fill="#B2B4B6"/>
<rect x="32" y="120" width="50" height="10" fill="#B2B4B6"/>
<path d="M41.4414 25.8008C42.4831 25.8008 43.4173 25.9896 44.2441 26.3672C45.071 26.7383 45.7708 27.2493 46.3438 27.9004C46.9232 28.5449 47.3626 29.3066 47.6621 30.1855C47.9681 31.0579 48.1211 31.9954 48.1211 32.998C48.1211 34.0072 47.9681 34.9479 47.6621 35.8203C47.3626 36.6927 46.9232 37.4544 46.3438 38.1055C45.7708 38.7565 45.071 39.2676 44.2441 39.6387C43.4173 40.0098 42.4831 40.1953 41.4414 40.1953C40.3932 40.1953 39.4557 40.0098 38.6289 39.6387C37.8086 39.2676 37.1087 38.7565 36.5293 38.1055C35.9564 37.4544 35.5169 36.6927 35.2109 35.8203C34.9115 34.9479 34.7617 34.0072 34.7617 32.998C34.7617 31.9954 34.9115 31.0579 35.2109 30.1855C35.5169 29.3066 35.9564 28.5449 36.5293 27.9004C37.1087 27.2493 37.8086 26.7383 38.6289 26.3672C39.4557 25.9896 40.3932 25.8008 41.4414 25.8008ZM41.4414 37.6367C42.0534 37.6367 42.5905 37.5228 43.0527 37.2949C43.5215 37.0605 43.9154 36.7383 44.2344 36.3281C44.5534 35.918 44.7943 35.4329 44.957 34.873C45.1198 34.3132 45.2012 33.7012 45.2012 33.0371V32.959C45.2012 32.3014 45.1198 31.6927 44.957 31.1328C44.7943 30.5664 44.5534 30.0781 44.2344 29.668C43.9154 29.2578 43.5215 28.9388 43.0527 28.7109C42.5905 28.4766 42.0534 28.3594 41.4414 28.3594C40.8294 28.3594 40.2891 28.4766 39.8203 28.7109C39.3516 28.9388 38.9577 29.2578 38.6387 29.668C38.3262 30.0781 38.0885 30.5664 37.9258 31.1328C37.763 31.6927 37.6816 32.3014 37.6816 32.959V33.0371C37.6816 33.7012 37.763 34.3132 37.9258 34.873C38.0885 35.4329 38.3262 35.918 38.6387 36.3281C38.9577 36.7383 39.3516 37.0605 39.8203 37.2949C40.2891 37.5228 40.8294 37.6367 41.4414 37.6367ZM63.4617 32.998C63.4617 34.0462 63.3185 35.0033 63.032 35.8691C62.7521 36.7285 62.3289 37.4642 61.7625 38.0762C61.2026 38.6882 60.4995 39.1634 59.6531 39.502C58.8068 39.834 57.8172 40 56.6844 40H51.5281V25.9961H56.6844C57.8172 25.9961 58.8068 26.1654 59.6531 26.5039C60.4995 26.8359 61.2026 27.3079 61.7625 27.9199C62.3289 28.5319 62.7521 29.2708 63.032 30.1367C63.3185 30.9961 63.4617 31.9499 63.4617 32.998ZM60.5223 32.7246C60.5223 32.1322 60.4474 31.582 60.2977 31.0742C60.1544 30.5599 59.9201 30.1139 59.5945 29.7363C59.2755 29.3587 58.8589 29.0625 58.3445 28.8477C57.8302 28.6263 57.2085 28.5156 56.4793 28.5156H54.3602V37.4805H56.4793C57.202 37.4805 57.8204 37.373 58.3348 37.1582C58.8491 36.9368 59.2658 36.6374 59.5848 36.2598C59.9103 35.8757 60.1479 35.4264 60.2977 34.9121C60.4474 34.3978 60.5223 33.8477 60.5223 33.2617V32.7246ZM65.7848 25.9961H76.4586V28.623H72.5426V40H69.7008V28.623H65.7848V25.9961Z" fill="white"/>
<defs>
<filter id="filter0_d_3799_193" x="3" y="6" width="103" height="143" filterUnits="userSpaceOnUse" color-interpolation-filters="sRGB">
<feFlood flood-opacity="0" result="BackgroundImageFix"/>
<feColorMatrix in="SourceAlpha" type="matrix" values="0 0 0 0 0 0 0 0 0 0 0 0 0 0 0 0 0 0 127 0" result="hardAlpha"/>
<feOffset dy="2"/>
<feGaussianBlur stdDeviation="1"/>
<feComposite in2="hardAlpha" operator="out"/>
<feColorMatrix type="matrix" values="0 0 0 0 0 0 0 0 0 0 0 0 0 0 0 0 0 0 0.25 0"/>
<feBlend mode="normal" in2="BackgroundImageFix" result="effect1_dropShadow_3799_193"/>
<feBlend mode="normal" in="SourceGraphic" in2="effect1_dropShadow_3799_193" result="shape"/>
</filter>
</defs>
</svg>
